<svg enable-background="new 0 0 100 100" fill="#d44100" viewBox="0 0 100 100" xmlns="http://www.w3.org/2000/svg"><path d="m67.014 94.691v-8.147c4.298 1.573 8.753 3.164 13.312 3.79 1.533.209 3.497.445 4.898-.405 2.161-1.312 2.893-4.729 2.77-7.023-.104-1.904-.704-4.227-1.957-5.727-.827-.99-2.075-.909-3.239-1.084-1.246-.188-2.477-.475-3.678-.85-4.957-1.557-9.361-4.61-12.943-8.33-.925-.958-1.807-1.968-2.601-3.039-1.457-1.966-3.468-3.496-5.685-4.519 3.7-3.403 4.865-8.922 2.793-13.512-1.848-4.093-5.982-6.85-10.474-6.958-4.508-.108-8.774 2.453-10.814 6.472-2.336 4.6-1.316 10.324 2.423 13.871-2.107.922-4.41 2.402-5.741 4.322-.368.533-.773 1.041-1.187 1.54-2.073 2.498-4.506 4.72-7.193 6.54-1.81 1.225-3.747 2.268-5.785 3.053-1.059.409-2.145.75-3.25 1.014-1.267.302-2.559.357-3.827.612-1.991.402-2.833 3.238-3.191 4.953-.52 2.487-.143 5.089 1.257 7.231.969 1.482 2.154 1.993 3.942 2.003 1.882.012 3.77-.377 5.593-.818 3.387-.815 6.702-1.941 9.972-3.138v8.147h5.297v-21.085c0-5.842 4.752-10.596 10.593-10.596h2.82c5.842 0 10.595 4.754 10.595 10.596v21.087zm-17.089-50.704c3.644 0 6.693 3.049 6.693 6.693s-3.049 6.692-6.693 6.692c-3.643 0-6.694-3.049-6.694-6.692 0-3.642 3.05-6.693 6.694-6.693zm-32.877 41.465c-.006 0-.013 0-.017 0-.844-1.549-.447-3.226-.036-4.253 6.492-.879 11.735-3.8 15.612-6.825v6.647c-6.19 2.316-13.228 4.431-15.559 4.431zm65.347 0c-2.069 0-4.231-.736-6.196-1.302-3.167-.913-6.292-1.974-9.378-3.129v-6.645c3.875 3.022 9.117 5.943 15.609 6.823.412 1.033.808 2.709-.035 4.253-.006 0 .843-1.544 0 0z"/><path d="m73.897 49.736c-.735 0-1.44-.425-1.762-1.142-.435-.973 0-2.114.974-2.55l15.106-6.764c.973-.436 2.114 0 2.55.973.435.973 0 2.114-.974 2.549l-15.105 6.764c-.256.116-.524.17-.789.17z"/><path d="m65.901 39.371c-.419 0-.843-.136-1.197-.417-.836-.663-.976-1.875-.313-2.711l12.694-16c.662-.834 1.875-.975 2.71-.312.836.662.976 1.875.313 2.711l-12.694 16c-.381.479-.943.729-1.513.729z"/><path d="m53.532 33.548c-.074 0-.149-.004-.226-.013-1.058-.123-1.815-1.081-1.692-2.139l2.765-23.821c.123-1.059 1.081-1.817 2.14-1.694s1.816 1.081 1.693 2.139l-2.766 23.821c-.113.983-.947 1.707-1.914 1.707z"/><path d="m41.275 34.343c-.846 0-1.621-.559-1.858-1.413l-4.166-14.98c-.286-1.026.315-2.09 1.343-2.376 1.026-.285 2.09.315 2.375 1.342l4.166 14.98c.287 1.027-.315 2.09-1.341 2.376-.174.048-.348.071-.519.071z"/><path d="m30.178 40.473c-.517 0-1.033-.206-1.413-.614l-19.667-21.11c-.726-.78-.683-2.001.096-2.728.78-.726 2.001-.684 2.727.096l19.668 21.11c.726.78.682 2.001-.097 2.728-.371.346-.844.518-1.314.518z"/><path d="m22.749 51.551c-.221 0-.446-.038-.666-.119l-12.239-4.501c-1-.368-1.513-1.477-1.145-2.477.367-1 1.477-1.513 2.477-1.146l12.24 4.501c1 .368 1.513 1.478 1.145 2.477-.288.78-1.025 1.265-1.812 1.265z"/><path d="m81.451 59.525h-4.784c-1.066 0-1.931-.864-1.931-1.93s.864-1.93 1.931-1.93h4.784c1.066 0 1.93.864 1.93 1.93s-.863 1.93-1.93 1.93z"/><path d="m19.021 59.525h-4.784c-1.065 0-1.929-.864-1.929-1.93s.864-1.93 1.929-1.93h4.784c1.066 0 1.93.864 1.93 1.93s-.864 1.93-1.93 1.93z"/></svg>